<svg width="20" height="20" viewBox="0 0 20 20" fill="none" xmlns="http://www.w3.org/2000/svg">
<g clip-path="url(#clip0)">
<path d="M1.65082 1.51969L1.49309 1.72094C1.23302 2.05279 1.0132 2.43868 0.848751 2.85768C0.69538 3.26241 0.602373 3.6417 0.559949 4.01723L0.559511 4.02097C0.180083 7.16652 1.58483 10.1096 5.74697 14.2718C5.74697 14.2718 5.74697 14.2718 5.74698 14.2719M1.65082 1.51969L5.74698 14.2719M1.65082 1.51969L2.29986 0.866916C2.30001 0.866767 2.30015 0.866618 2.3003 0.86647C2.75516 0.411951 3.45727 0.418214 3.86338 0.824248L6.95182 3.91337C7.35887 4.32092 7.36494 5.02284 6.91056 5.47735L6.91039 5.47752L6.39742 5.99112L6.39694 5.9916L5.35305 7.03394L5.08255 7.30404L5.27227 7.63591C5.31712 7.71436 5.36245 7.79637 5.41145 7.88501C5.4196 7.89975 5.42785 7.91467 5.43621 7.92979L5.43662 7.93052L5.44276 7.94158C5.99189 8.93026 6.76634 10.3246 8.2326 11.7907M1.65082 1.51969L8.2326 11.7907M5.74698 14.2719C11.3714 19.8958 15.8559 19.4804 16.0063 19.465M5.74698 14.2719L16.0063 19.465M16.0063 19.465C16.4014 19.4175 16.7799 19.3232 17.1675 19.1727C17.5828 19.0104 17.9691 18.7907 18.3015 18.5306L18.4601 18.4064L19.1584 17.7227C19.6101 17.2681 19.6041 16.5667 19.1975 16.1587L16.1101 13.071C16.1099 13.0708 16.1098 13.0707 16.1097 13.0705C15.7014 12.6644 14.9992 12.6595 14.5459 13.1129L14.5458 13.113L12.9897 14.6688L12.724 14.9345L12.3948 14.7531C12.2958 14.6985 12.1934 14.6415 12.0858 14.5812C11.0967 14.0331 9.69991 13.2591 8.23275 11.7909C8.2327 11.7908 8.23265 11.7908 8.2326 11.7907M16.0063 19.465L5.87682 7.69332C6.42269 8.67612 7.16951 10.0207 8.58628 11.4373L8.2326 11.7907" stroke="#090909"/>
</g>
<defs>
<clipPath id="clip0">
</clipPath>
</defs>
</svg>
