<svg width="25" height="20" viewBox="0 0 25 20" fill="none" xmlns="http://www.w3.org/2000/svg">
<path d="M0.85833 1.25169L0.857974 1.25137C0.851172 1.24524 0.841556 1.23141 0.839298 1.20783C0.837043 1.18428 0.843612 1.16478 0.852868 1.15218L0.852874 1.15217C1.16459 0.727841 1.61509 0.5 2.08464 0.5H22.918C23.3876 0.5 23.838 0.72781 24.1498 1.15208C24.1591 1.16473 24.1656 1.18426 24.1634 1.20783C24.1611 1.23142 24.1515 1.24524 24.1447 1.25137L24.1444 1.25169C20.7169 4.34784 14.6884 9.80847 12.9102 11.5173L12.9097 11.5177C12.742 11.6793 12.6062 11.7217 12.5013 11.7217C12.397 11.7217 12.2608 11.6791 12.0919 11.516L12.0909 11.5151C10.3142 9.80794 4.28571 4.34782 0.85833 1.25169Z" stroke="#090909"/>
<path d="M24.4778 3.75395L24.4792 3.75273C24.4814 3.75444 24.4851 3.75796 24.4891 3.76464C24.4952 3.77476 24.5 3.78929 24.5 3.80677V17.7779C24.5 18.7582 23.7596 19.5001 22.9167 19.5001H2.08335C1.24037 19.5001 0.5 18.7582 0.5 17.7779V3.80677C0.5 3.78938 0.504765 3.77502 0.510808 3.76495C0.514649 3.75855 0.518343 3.75485 0.520925 3.75281C0.52124 3.75307 0.521581 3.75336 0.521949 3.75369L0.522208 3.75393C3.63195 6.5653 9.07776 11.5035 10.6993 13.062C11.7521 14.0744 13.2482 14.0751 14.2996 13.063C15.8205 11.6012 20.6694 7.19765 24.4778 3.75395Z" stroke="#090909"/>
</svg>
