<svg width="20" height="20" viewBox="0 0 20 20" fill="none" xmlns="http://www.w3.org/2000/svg">
<path d="M17.0703 19.5H2.92969C1.59038 19.5 0.5 18.4096 0.5 17.0703V2.92969C0.5 1.59038 1.59038 0.5 2.92969 0.5H17.0703C18.4096 0.5 19.5 1.59038 19.5 2.92969V17.0703C19.5 18.4096 18.4096 19.5 17.0703 19.5ZM2.92969 0.671875C1.68431 0.671875 0.671875 1.68431 0.671875 2.92969V17.0703C0.671875 18.3157 1.68431 19.3281 2.92969 19.3281H17.0703C18.3157 19.3281 19.3281 18.3157 19.3281 17.0703V2.92969C19.3281 1.68431 18.3157 0.671875 17.0703 0.671875H2.92969Z" fill="#211818" stroke="#090909"/>
<path d="M14.7734 10C14.7734 12.6316 12.6316 14.7734 10 14.7734C7.36843 14.7734 5.22656 12.6316 5.22656 10C5.22656 7.36843 7.36843 5.22656 10 5.22656C12.6316 5.22656 14.7734 7.36843 14.7734 10ZM14.6016 10C14.6016 7.4622 12.5378 5.39844 10 5.39844C7.4622 5.39844 5.39844 7.4622 5.39844 10C5.39844 12.5378 7.4622 14.6016 10 14.6016C12.5378 14.6016 14.6016 12.5378 14.6016 10Z" fill="#211818" stroke="#090909"/>
<path d="M17.1172 4.14062C17.1172 4.83372 16.5525 5.39844 15.8594 5.39844C15.1663 5.39844 14.6016 4.83372 14.6016 4.14062C14.6016 3.44753 15.1663 2.88281 15.8594 2.88281C16.5525 2.88281 17.1172 3.44753 17.1172 4.14062ZM16.9453 4.14062C16.9453 3.54145 16.4585 3.05469 15.8594 3.05469C15.2602 3.05469 14.7734 3.54145 14.7734 4.14062C14.7734 4.7398 15.2602 5.22656 15.8594 5.22656C16.4585 5.22656 16.9453 4.7398 16.9453 4.14062Z" fill="#211818" stroke="#090909"/>
</svg>
